<svg viewBox="0 0 700 220" xmlns="http://www.w3.org/2000/svg" font-family="Segoe UI, Arial, sans-serif"><rect width="700" height="220" fill="#ffffff"/><defs><marker id="arrow" viewBox="0 0 10 10" refX="9" refY="5" markerWidth="7" markerHeight="7" orient="auto-start-reverse"><path d="M0,0 L10,5 L0,10 z" fill="#495057"/></marker></defs><text x="350.0" y="24" text-anchor="middle" font-size="15" font-weight="600" fill="#212529">Content vs. Metadata Split</text><rect x="20" y="30" width="150" height="45" rx="8" fill="#eef4ff" stroke="#3b5bdb" stroke-width="1.5"/><text x="95.0" y="56.166666666666664" text-anchor="middle" font-family='Segoe UI, Arial, sans-serif' font-size="11" fill="#1a1a2e">Fetcher</text><rect x="240" y="20" width="300" height="45" rx="8" fill="#eef4ff" stroke="#3b5bdb" stroke-width="1.5"/><text x="390.0" y="45.666666666666664" text-anchor="middle" font-family='Segoe UI, Arial, sans-serif' font-size="9.5" fill="#1a1a2e">Object store (page content, large bytes)</text><rect x="240" y="80" width="300" height="45" rx="8" fill="#eef4ff" stroke="#3b5bdb" stroke-width="1.5"/><text x="390.0" y="105.5" text-anchor="middle" font-family='Segoe UI, Arial, sans-serif' font-size="9" fill="#1a1a2e">Metadata DB (url, hash, etag, fetched_at)</text><line x1="170" y1="42" x2="240" y2="42" stroke="#495057" stroke-width="1.6" marker-end="url(#arrow)"/><path d="M170,60 Q205,95 240,100" fill="none" stroke="#495057" stroke-width="1.6" marker-end="url(#arrow)"/><rect x="20" y="150" width="200" height="40" rx="8" fill="#eef4ff" stroke="#3b5bdb" stroke-width="1.5"/><text x="120.0" y="173.5" text-anchor="middle" font-family='Segoe UI, Arial, sans-serif' font-size="10.5" fill="#1a1a2e">Recrawl check</text><rect x="280" y="150" width="200" height="40" rx="8" fill="#eef4ff" stroke="#3b5bdb" stroke-width="1.5"/><text x="380.0" y="173.5" text-anchor="middle" font-family='Segoe UI, Arial, sans-serif' font-size="10.5" fill="#1a1a2e">Origin server</text><line x1="220" y1="170" x2="280" y2="170" stroke="#495057" stroke-width="1.6" marker-end="url(#arrow)"/><rect x="210.0" y="151" width="80" height="14" fill="white" opacity="0.85"/><text x="250.0" y="164" text-anchor="middle" font-family='Segoe UI, Arial, sans-serif' font-size="11" fill="#495057">conditional GET (stored etag)</text><rect x="540" y="150" width="130" height="40" rx="8" fill="#eef4ff" stroke="#3b5bdb" stroke-width="1.5"/><text x="605.0" y="173.16666666666666" text-anchor="middle" font-family='Segoe UI, Arial, sans-serif' font-size="9.5" fill="#1a1a2e">304 Not Modified</text><line x1="480" y1="170" x2="540" y2="170" stroke="#495057" stroke-width="1.6" marker-end="url(#arrow)"/></svg>