<svg viewBox="0 0 680 420" xmlns="http://www.w3.org/2000/svg" font-family="Segoe UI, Arial, sans-serif"><rect width="680" height="420" fill="#ffffff"/><defs><marker id="arrow" viewBox="0 0 10 10" refX="9" refY="5" markerWidth="7" markerHeight="7" orient="auto-start-reverse"><path d="M0,0 L10,5 L0,10 z" fill="#495057"/></marker></defs><text x="340.0" y="24" text-anchor="middle" font-size="15" font-weight="600" fill="#212529">The Composed Design</text><rect x="20" y="20" width="400" height="42" rx="8" fill="#eef4ff" stroke="#3b5bdb" stroke-width="1.5"/><text x="220.0" y="44.333333333333336" text-anchor="middle" font-family='Segoe UI, Arial, sans-serif' font-size="10" fill="#1a1a2e">Client</text><line x1="220" y1="62" x2="220" y2="90" stroke="#495057" stroke-width="1.6" marker-end="url(#arrow)"/><rect x="20" y="90" width="400" height="42" rx="8" fill="#eef4ff" stroke="#3b5bdb" stroke-width="1.5"/><text x="220.0" y="114.33333333333333" text-anchor="middle" font-family='Segoe UI, Arial, sans-serif' font-size="10" fill="#1a1a2e">Idempotency gate</text><line x1="220" y1="132" x2="220" y2="160" stroke="#495057" stroke-width="1.6" marker-end="url(#arrow)"/><rect x="20" y="160" width="400" height="42" rx="8" fill="#eef4ff" stroke="#3b5bdb" stroke-width="1.5"/><text x="220.0" y="184.33333333333334" text-anchor="middle" font-family='Segoe UI, Arial, sans-serif' font-size="10" fill="#1a1a2e">Payment + saga_state</text><line x1="220" y1="202" x2="220" y2="230" stroke="#495057" stroke-width="1.6" marker-end="url(#arrow)"/><rect x="20" y="230" width="400" height="42" rx="8" fill="#eef4ff" stroke="#3b5bdb" stroke-width="1.5"/><text x="220.0" y="254.33333333333334" text-anchor="middle" font-family='Segoe UI, Arial, sans-serif' font-size="10" fill="#1a1a2e">Payment queue</text><line x1="220" y1="272" x2="220" y2="300" stroke="#495057" stroke-width="1.6" marker-end="url(#arrow)"/><rect x="20" y="300" width="400" height="42" rx="8" fill="#eef4ff" stroke="#3b5bdb" stroke-width="1.5"/><text x="220.0" y="318.0833333333333" text-anchor="middle" font-family='Segoe UI, Arial, sans-serif' font-size="8.5" fill="#1a1a2e">Payment worker: saga (authorize, capture, compensate on</text><text x="220.0" y="329.5833333333333" text-anchor="middle" font-family='Segoe UI, Arial, sans-serif' font-size="8.5" fill="#1a1a2e">failure)</text><rect x="480" y="370" width="170" height="40" rx="8" fill="#eef4ff" stroke="#3b5bdb" stroke-width="1.5"/><text x="565.0" y="393.3333333333333" text-anchor="middle" font-family='Segoe UI, Arial, sans-serif' font-size="10" fill="#1a1a2e">External provider</text><rect x="20" y="370" width="400" height="40" rx="8" fill="#eef4ff" stroke="#3b5bdb" stroke-width="1.5"/><text x="220.0" y="393.0" text-anchor="middle" font-family='Segoe UI, Arial, sans-serif' font-size="9" fill="#1a1a2e">debit + credit + status (one txn) → Ledger DB</text><path d="M340,342 Q460,355 560,370" fill="none" stroke="#495057" stroke-width="1.6" marker-end="url(#arrow)"/><path d="M300,342 Q260,355 220,370" fill="none" stroke="#495057" stroke-width="1.6" marker-end="url(#arrow)"/></svg>