<svg viewBox="0 0 940 260" xmlns="http://www.w3.org/2000/svg" font-family="Arial,Helvetica,sans-serif"><rect x="0" y="0" width="940" height="260" fill="#ffffff"/><defs><marker id="arrow" markerWidth="8" markerHeight="8" refX="7" refY="4" orient="auto"><path d="M0,0 L8,4 L0,8 z" fill="#4b5563"/></marker></defs><rect x="20" y="105" width="130" height="50" rx="25.0" fill="#3b82f6" stroke="#3b82f6" stroke-width="1.5"/>
<text x="85.0" y="135.0" text-anchor="middle" font-family="Arial,Helvetica,sans-serif" font-size="13" font-weight="600" fill="#ffffff">Client</text>
<rect x="220" y="90" width="220" height="60" rx="10" fill="#f97316" stroke="#ea580c" stroke-width="1.5"/>
<text x="330.0" y="125.0" text-anchor="middle" font-family="Arial,Helvetica,sans-serif" font-size="13" font-weight="600" fill="#ffffff">Metadata service</text>
<rect x="430" y="82" width="34" height="16" rx="8" fill="#ec4899"/>
<text x="447" y="93.5" text-anchor="middle" font-family="Arial,Helvetica,sans-serif" font-size="9" font-weight="700" fill="#ffffff">NEW</text>
<rect x="510" y="105" width="130" height="50" rx="25.0" fill="#3b82f6" stroke="#3b82f6" stroke-width="1.5"/>
<text x="575.0" y="135.0" text-anchor="middle" font-family="Arial,Helvetica,sans-serif" font-size="13" font-weight="600" fill="#ffffff">Client</text>
<path d="M 710 97.0 L 710 148.0 A 100.0 12.0 0 0 0 910 148.0 L 910 97.0" fill="#22c55e" stroke="#16a34a" stroke-width="1.5"/>
<ellipse cx="810.0" cy="97.0" rx="100.0" ry="12.0" fill="#22c55e" stroke="#16a34a" stroke-width="1.5"/>
<text x="810.0" y="123.1" text-anchor="middle" font-family="Arial,Helvetica,sans-serif" font-size="13" font-weight="600" fill="#ffffff">Block store</text>
<text x="810.0" y="139.1" text-anchor="middle" font-family="Arial,Helvetica,sans-serif" font-size="13" font-weight="600" fill="#ffffff">(content-addressed)</text>
<rect x="896" y="79" width="34" height="16" rx="8" fill="#ec4899"/>
<text x="913" y="90.5" text-anchor="middle" font-family="Arial,Helvetica,sans-serif" font-size="9" font-weight="700" fill="#ffffff">NEW</text>
<line x1="150" y1="120" x2="220" y2="110" stroke="#4b5563" stroke-width="1.5" marker-end="url(#arrow)"/>
<text x="185.0" y="107.0" text-anchor="middle" font-family="Arial,Helvetica,sans-serif" font-size="11" fill="#4b5563">probe hashes</text>
<line x1="440" y1="110" x2="510" y2="120" stroke="#4b5563" stroke-width="1.5" stroke-dasharray="4,3" marker-end="url(#arrow)"/>
<text x="475.0" y="107.0" text-anchor="middle" font-family="Arial,Helvetica,sans-serif" font-size="11" fill="#4b5563">missing hashes</text>
<line x1="640" y1="130" x2="710" y2="122" stroke="#4b5563" stroke-width="1.5" marker-end="url(#arrow)"/>
<text x="675.0" y="140.0" text-anchor="middle" font-family="Arial,Helvetica,sans-serif" font-size="11" fill="#4b5563">upload only</text></svg>