<svg viewBox="0 0 700 300" xmlns="http://www.w3.org/2000/svg" font-family="Segoe UI, Arial, sans-serif"><rect width="700" height="300" fill="#ffffff"/><defs><marker id="arrow" viewBox="0 0 10 10" refX="9" refY="5" markerWidth="7" markerHeight="7" orient="auto-start-reverse"><path d="M0,0 L10,5 L0,10 z" fill="#495057"/></marker></defs><text x="350.0" y="24" text-anchor="middle" font-size="15" font-weight="600" fill="#212529">Sequence: A Click, End to End</text><rect x="10" y="30" width="140" height="34" rx="8" fill="#eef4ff" stroke="#3b5bdb" stroke-width="1.5"/><text x="80.0" y="50.166666666666664" text-anchor="middle" font-family='Segoe UI, Arial, sans-serif' font-size="9.5" fill="#1a1a2e">Client</text><line x1="80" y1="64" x2="80" y2="260" stroke="#ced4da" stroke-width="1.5"/><rect x="230" y="30" width="140" height="34" rx="8" fill="#eef4ff" stroke="#3b5bdb" stroke-width="1.5"/><text x="300.0" y="50.166666666666664" text-anchor="middle" font-family='Segoe UI, Arial, sans-serif' font-size="9.5" fill="#1a1a2e">App server</text><line x1="300" y1="64" x2="300" y2="260" stroke="#ced4da" stroke-width="1.5"/><rect x="430" y="30" width="140" height="34" rx="8" fill="#eef4ff" stroke="#3b5bdb" stroke-width="1.5"/><text x="500.0" y="50.166666666666664" text-anchor="middle" font-family='Segoe UI, Arial, sans-serif' font-size="9.5" fill="#1a1a2e">Durable log</text><line x1="500" y1="64" x2="500" y2="260" stroke="#ced4da" stroke-width="1.5"/><rect x="570" y="30" width="140" height="34" rx="8" fill="#eef4ff" stroke="#3b5bdb" stroke-width="1.5"/><text x="640.0" y="50.166666666666664" text-anchor="middle" font-family='Segoe UI, Arial, sans-serif' font-size="9.5" fill="#1a1a2e">Stream processor</text><line x1="640" y1="64" x2="640" y2="260" stroke="#ced4da" stroke-width="1.5"/><path d="M80,90 Q190.0,75 300,90" fill="none" stroke="#495057" stroke-width="1.6" marker-end="url(#arrow)"/><text x="190.0" y="105" text-anchor="middle" font-family='Segoe UI, Arial, sans-serif' font-size="9.5" fill="#495057" font-style="italic">POST /clicks (event_id=X)</text><path d="M300,130 Q400.0,115 500,130" fill="none" stroke="#495057" stroke-width="1.6" marker-end="url(#arrow)"/><text x="400.0" y="145" text-anchor="middle" font-family='Segoe UI, Arial, sans-serif' font-size="9.5" fill="#495057" font-style="italic">append event X (durable)</text><path d="M300,170 Q190.0,155 80,170" fill="none" stroke="#495057" stroke-width="1.6" marker-end="url(#arrow)"/><text x="190.0" y="185" text-anchor="middle" font-family='Segoe UI, Arial, sans-serif' font-size="9.5" fill="#495057" font-style="italic">202 Accepted</text><path d="M500,210 Q550.0,195 640,210" fill="none" stroke="#495057" stroke-width="1.6" marker-end="url(#arrow)"/><text x="570.0" y="225" text-anchor="middle" font-family='Segoe UI, Arial, sans-serif' font-size="9.5" fill="#495057" font-style="italic">deliver event X</text><text x="640" y="250" text-anchor="end" font-family='Segoe UI, Arial, sans-serif' font-size="8.5" fill="#495057" font-style="italic">dedup check X, not seen → increment window count → Aggregate store</text></svg>