<svg viewBox="0 0 700 210" xmlns="http://www.w3.org/2000/svg" font-family="Segoe UI, Arial, sans-serif"><rect width="700" height="210" fill="#ffffff"/><defs><marker id="arrow" viewBox="0 0 10 10" refX="9" refY="5" markerWidth="7" markerHeight="7" orient="auto-start-reverse"><path d="M0,0 L10,5 L0,10 z" fill="#495057"/></marker></defs><text x="350.0" y="24" text-anchor="middle" font-size="15" font-weight="600" fill="#212529">Per-Key Ordering with Parallelism</text><rect x="20" y="75" width="170" height="50" rx="8" fill="#eef4ff" stroke="#3b5bdb" stroke-width="1.5"/><text x="105.0" y="96.75" text-anchor="middle" font-family='Segoe UI, Arial, sans-serif' font-size="10.5" fill="#1a1a2e">Events, keyed by user</text><text x="105.0" y="110.25" text-anchor="middle" font-family='Segoe UI, Arial, sans-serif' font-size="10.5" fill="#1a1a2e">(user A, user B)</text><rect x="230" y="75" width="130" height="50" rx="8" fill="#eef4ff" stroke="#3b5bdb" stroke-width="1.5"/><text x="295.0" y="104.33333333333333" text-anchor="middle" font-family='Segoe UI, Arial, sans-serif' font-size="13" fill="#1a1a2e">hash key</text><line x1="190" y1="100" x2="230" y2="100" stroke="#495057" stroke-width="1.6" marker-end="url(#arrow)"/><line x1="360" y1="100" x2="410" y2="100" stroke="#495057" stroke-width="1.6" marker-end="url(#arrow)"/><rect x="410" y="30" width="240" height="40" rx="8" fill="#eef4ff" stroke="#3b5bdb" stroke-width="1.5"/><text x="530.0" y="53.5" text-anchor="middle" font-family='Segoe UI, Arial, sans-serif' font-size="10.5" fill="#1a1a2e">Partition 0 (user A, in order)</text><rect x="410" y="130" width="240" height="40" rx="8" fill="#eef4ff" stroke="#3b5bdb" stroke-width="1.5"/><text x="530.0" y="153.5" text-anchor="middle" font-family='Segoe UI, Arial, sans-serif' font-size="10.5" fill="#1a1a2e">Partition 1 (user B, in order)</text><path d="M370,90 Q390,40 410,50" fill="none" stroke="#495057" stroke-width="1.6" marker-end="url(#arrow)"/><path d="M370,110 Q390,160 410,150" fill="none" stroke="#495057" stroke-width="1.6" marker-end="url(#arrow)"/></svg>